<svg width="145" height="23" viewBox="0 0 145 23" fill="none" xmlns="http://www.w3.org/2000/svg">
<path d="M33.0873 20.2905C31.2687 18.5018 30.3593 15.9672 30.3593 12.6865V0.442733H36.6029V12.4962C36.6029 16.0314 38.0012 17.7979 40.7977 17.7979C43.5721 17.7979 44.9615 16.0314 44.9615 12.4962V0.442733H51.1122V12.6865C51.1122 15.9694 50.2029 18.504 48.3842 20.2905C46.5656 22.0791 44.0168 22.9734 40.7358 22.9734C37.4569 22.9734 34.9059 22.0791 33.0873 20.2905Z" fill="#00FED9"/>
<path d="M52.9087 5.39692V0.442733H72.6836V5.39692H65.9356V22.5307H59.6921V5.39692H52.9087Z" fill="#00FED9"/>
<path d="M96.0206 0.442733V22.5307H89.7771V13.9151H81.2613V22.5307H75.0178V0.442733H81.2613V8.74178H89.7771V0.442733H96.0206Z" fill="#00FED9"/>
<path d="M118.161 17.7049V22.5329H100.437V0.444949H117.751V5.27296H106.618V8.99635H116.426V13.6672H106.618V17.7071H118.161V17.7049Z" fill="#00FED9"/>
<path d="M126.44 21.4903C124.579 20.5008 123.117 19.1349 122.057 17.3884C120.995 15.6418 120.464 13.676 120.464 11.4867C120.464 9.29962 120.995 7.33167 122.057 5.58508C123.119 3.8385 124.579 2.47267 126.44 1.48316C128.3 0.493651 130.398 0 132.732 0C135.066 0 137.163 0.493651 139.024 1.48316C140.885 2.47267 142.345 3.8385 143.407 5.58508C144.469 7.33167 145 9.29741 145 11.4867C145 13.6738 144.469 15.6418 143.407 17.3884C142.345 19.1349 140.885 20.503 139.024 21.4903C137.163 22.4798 135.066 22.9734 132.732 22.9734C130.398 22.9734 128.3 22.4798 126.44 21.4903ZM135.759 17.0098C136.661 16.483 137.378 15.7436 137.902 14.7851C138.427 13.8288 138.69 12.7286 138.69 11.4867C138.69 10.2449 138.427 9.14688 137.902 8.18836C137.376 7.23206 136.661 6.49047 135.759 5.96362C134.854 5.43898 133.845 5.17555 132.732 5.17555C131.617 5.17555 130.608 5.43898 129.705 5.96362C128.8 6.49047 128.086 7.23206 127.561 8.18836C127.035 9.14688 126.774 10.2449 126.774 11.4867C126.774 12.7286 127.037 13.8266 127.561 14.7851C128.086 15.7436 128.803 16.483 129.705 17.0098C130.608 17.5367 131.619 17.7979 132.732 17.7979C133.845 17.7979 134.856 17.5367 135.759 17.0098Z" fill="#00FED9"/>
<path d="M0 23H6.58648L8.24582 19.7858H13.3323V15.0707H10.9229L15.0845 7.35602L19.2749 14.9644L16.8125 15.1769L16.974 19.8389H21.8458L23.5605 23H30.3593L17.8833 0.123965H12.4229L0 23Z" fill="#00FED9"/>
</svg>
